# xmcd
#
# Track frame offsets: 
#        183
#        12685
#        26255
#        42033
#        56873
#        69905
#        82513
#        93990
#        107620
#        120248
#        132930
#        146643
#        159375
#        172410
#        185635
#        198003
#        209675
#        223278
#        235833
#        248405
#        259343
#
# Disc length: 3621 seconds
#
# Revision: 0
# Processed by: cddbd v1.5.2PL0 Copyright (c) Steve Scherf et al.
# Submitted via: ExactAudioCopy v0.95b4
#
DISCID=250e2315
DTITLE=Big Bill Broonzy - Complete Edition (Vol 1) (1927-1930)
DYEAR=1993
DGENRE=Blues
TTITLE0=House Rent Stomp
TTITLE1=Big Bill Blues
TTITLE2=Down In The Basement Blues
TTITLE3=Starvation Blues
TTITLE4=My Texas Blues
TTITLE5=Six Shooter Blues
TTITLE6=Pig Meat Blues
TTITLE7=The Western Blues
TTITLE8=Mountain Girl Blues
TTITLE9=Somebody's Been Using That Thing
TTITLE10=Black Cat Rag
TTITLE11=Pig Meat Strut
TTITLE12=Guitar Rag
TTITLE13=Saturday Night Rub
TTITLE14=Eagle Riding Papa
TTITLE15=Papa's Getting Hot
TTITLE16=Nancy Jane
TTITLE17=That's The Way She Likes It
TTITLE18=I Can't Be Satisfied
TTITLE19=Grandma's Farm
TTITLE20=Skoodle Do Do
EXTD=
EXTT0=
EXTT1=
EXTT2=
EXTT3=
EXTT4=
EXTT5=
EXTT6=
EXTT7=
EXTT8=
EXTT9=
EXTT10=
EXTT11=
EXTT12=
EXTT13=
EXTT14=
EXTT15=
EXTT16=
EXTT17=
EXTT18=
EXTT19=
EXTT20=
PLAYORDER=
